<?xml version="1.0"?>
<svg xmlns="http://www.w3.org/2000/svg" xmlns:xlink="http://www.w3.org/1999/xlink" version="1.1" id="Capa_1" x="0px" y="0px" viewBox="0 0 512 512" style="enable-background:new 0 0 512 512;" xml:space="preserve" width="512px" height="512px"><g><g>
	<g>
		<path d="M255.865,181.04c-41.331,0-74.96,33.629-74.96,74.96s33.629,74.96,74.96,74.96c41.331,0,74.961-33.629,74.961-74.96    S297.196,181.04,255.865,181.04z M255.865,300.977c-24.801,0-44.976-20.175-44.976-44.976s20.175-44.976,44.976-44.976    S300.841,231.2,300.841,256S280.666,300.977,255.865,300.977z" data-original="#000000" class="active-path" data-old_color="#000000" fill="#E3E9ED"/>
	</g>
</g><g>
	<g>
		<path d="M255.865,241.008c-8.272,0-14.992,6.72-14.992,14.992s6.72,14.992,14.992,14.992c8.272,0,14.992-6.72,14.992-14.992    C270.857,247.729,264.137,241.008,255.865,241.008z" data-original="#000000" class="active-path" data-old_color="#000000" fill="#E3E9ED"/>
	</g>
</g><g>
	<g>
		<path d="M505.733,247.274c-4.568-6.384-111.822-156.188-250.411-156.188S10.834,240.891,6.267,247.274L0,256l6.267,8.725    c4.568,6.384,110.467,156.188,249.057,156.188s245.842-149.804,250.41-156.188L512,256L505.733,247.274z M255.322,360.945    c-57.86,0-104.945-47.084-104.945-104.945s47.084-104.945,104.945-104.945c57.861,0,104.945,47.084,104.945,104.945    S313.183,360.945,255.322,360.945z" data-original="#000000" class="active-path" data-old_color="#000000" fill="#E3E9ED"/>
	</g>
</g></g> </svg>
